#!OML:ASF F:\VICON\USERDATA\INSTALL\rory3\rory3.ASF
:FULLY-SPECIFIED
:DEGREES
2898
root -8.52986 18.2093 3.04512 -536.117 -59.3217 537.72
lowerback 9.9768 2.79704 -4.1248
upperback -0.184325 3.12991 -1.10999
thorax -5.95494 1.62525 0.684243
lowerneck -16.3556 9.43838 -2.64288
upperneck -7.60701 12.2469 -6.17899
head 0.491875 5.80086 -0.860967
rclavicle 1.07344e-014 -3.57812e-015
rhumerus 97.1505 -20.3585 -53.2625
rradius 39.4194
rwrist -36.6738
rhand -29.3043 -8.12898
rfingers 7.12502
rthumb -2.64563 -38.0923
lclavicle 1.07344e-014 -3.57812e-015
lhumerus 96.5199 16.2742 47.6503
lradius 41.2966
lwrist 53.1765
lhand -16.9926 23.1406
lfingers 7.12502
lthumb 9.24247 52.9181
rfemur -9.11049 19.8821 5.50079
rtibia 33.1668
rfoot -18.0227 -16.6298
rtoes -19.4767
lfemur -1.67942 -16.6294 -13.2707
ltibia 22.0976
lfoot -20.2185 15.3667
ltoes -18.1487
2899
root -8.4413 18.148 2.92986 -535.701 -59.8707 537.211
lowerback 10.1336 2.65033 -4.76074
upperback -0.0289308 2.84184 -1.18452
thorax -5.895 1.49436 1.0042
lowerneck -15.6534 9.53072 -2.73968
upperneck -8.09818 12.3302 -6.29064
head 0.222655 5.87355 -0.923814
rclavicle 7.48424e-014 -7.55382e-015
rhumerus 95.7071 -20.5803 -52.4401
rradius 41.1219
rwrist -36.7608
rhand -29.3768 -6.9976
rfingers 7.12502
rthumb -2.71565 -36.9601
lclavicle 7.48424e-014 -7.55382e-015
lhumerus 95.2923 16.5226 46.5109
lradius 42.5879
lwrist 53.2899
lhand -16.9032 22.7638
lfingers 7.12502
lthumb 9.32877 52.5374
rfemur -8.90431 19.1473 5.68949
rtibia 33.6021
rfoot -19.1743 -15.9881
rtoes -20.2276
lfemur -2.13664 -16.8207 -12.8266
ltibia 22.5785
lfoot -20.3679 14.7722
ltoes -18.758
2900
root -8.34548 18.1141 2.80773 -535.109 -60.3883 536.52
lowerback 10.3787 2.6244 -5.43425
upperback 0.121096 2.69613 -1.31583
thorax -5.89343 1.4323 1.2599
lowerneck -14.7794 9.51691 -2.9873
upperneck -8.9123 12.2475 -6.54751
head -0.175143 5.87456 -1.0353
rclavicle 2.98674e-014 -1.86858e-014
rhumerus 94.442 -20.4853 -52.2583
rradius 42.6707
rwrist -36.2018
rhand -29.0961 -5.91755
rfingers 7.12502
rthumb -2.44455 -35.8833
lclavicle 2.98674e-014 -1.86858e-014
lhumerus 94.2312 16.5912 45.6596
lradius 43.8895
lwrist 53.7299
lhand -16.6712 22.3879
lfingers 7.12502
lthumb 9.55257 52.1514
rfemur -8.78355 18.8959 5.93025
rtibia 34.1307
rfoot -20.3104 -15.635
rtoes -21.7201
lfemur -2.68197 -16.7923 -12.4022
ltibia 23.0279
lfoot -20.2486 14.0398
ltoes -19.5505
2901
root -8.24076 18.0909 2.67105 -534.298 -60.8951 535.563
lowerback 10.7079 2.69065 -6.2811
upperback 0.312408 2.63398 -1.51211
thorax -5.90425 1.4112 1.52855
lowerneck -14.1613 9.47338 -3.11975
upperneck -9.73406 12.0901 -7.06664
head -0.506986 5.82484 -1.23529
rclavicle 4.86029e-014 -1.15295e-014
rhumerus 93.4496 -20.6041 -52.1173
rradius 43.7782
rwrist -35.6897
rhand -28.557 -4.59262
rfingers 7.12502
rthumb -1.92391 -34.5637
lclavicle 4.86029e-014 -1.15295e-014
lhumerus 93.1953 16.658 44.6858
lradius 45.2681
lwrist 54.3198
lhand -16.5887 22.0122
lfingers 7.12502
lthumb 9.63222 51.7719
rfemur -8.76233 18.6281 6.18013
rtibia 34.682
rfoot -21.4172 -15.8083
rtoes -21.2857
lfemur -3.21922 -16.3997 -12.0052
ltibia 23.3771
lfoot -19.8646 12.9919
ltoes -20.6208
2902
root -8.13822 18.0805 2.52287 -533.408 -61.4287 534.57
lowerback 10.9309 2.78696 -6.99579
upperback 0.560552 2.62937 -1.76141
thorax -5.78939 1.40729 1.66392
lowerneck -14.1159 9.38251 -3.50185
upperneck -10.2612 11.9426 -7.34228
head -0.690331 5.77019 -1.28897
rclavicle -7.14631e-014 9.54166e-015
rhumerus 91.9532 -21.2774 -51.1815
rradius 45.515
rwrist -35.8947
rhand -28.6132 -4.39425
rfingers 7.12502
rthumb -1.97811 -34.3648
lclavicle -7.14631e-014 9.54166e-015
lhumerus 91.6846 16.8847 42.7789
lradius 47.0171
lwrist 54.6284
lhand -17.6654 21.5291
lfingers 7.12502
lthumb 8.59322 51.3342
rfemur -8.87922 18.4127 6.5385
rtibia 35.2173
rfoot -22.3374 -16.9788
rtoes -19.6352
lfemur -3.71629 -16.1656 -11.6395
ltibia 23.6439
lfoot -19.42 12.0503
ltoes -21.0834
2903
root -8.04629 18.0876 2.38271 -532.885 -62.0246 534.224
lowerback 10.8689 2.72219 -7.15209
upperback 0.760767 2.51648 -1.95518
thorax -5.5315 1.33721 1.57504
lowerneck -14.3584 9.38845 -4.07638
upperneck -10.4855 12.0022 -7.3226
head -0.762736 5.81584 -1.19344
rclavicle 7.55382e-015 6.36111e-015
rhumerus 90.0949 -21.7868 -49.9289
rradius 47.7425
rwrist -36.5325
rhand -29.1659 -4.94387
rfingers 7.12502
rthumb -2.51196 -34.9088
lclavicle 7.55382e-015 6.36111e-015
lhumerus 89.6138 17.3568 40.3469
lradius 49.0169
lwrist 54.9733
lhand -18.5047 21.4719
lfingers 7.12502
lthumb 7.78322 51.3086
rfemur -9.30962 18.2251 7.1705
rtibia 35.7652
rfoot -23.0326 -18.1925
rtoes -18.9952
lfemur -4.3692 -16.4781 -11.0324
ltibia 23.8694
lfoot -18.959 11.806
ltoes -21.407
